<?xml version="1.0" standalone="no"?>
<!DOCTYPE svg PUBLIC "-//W3C//DTD SVG 20010904//EN"
 "http://www.w3.org/TR/2001/REC-SVG-20010904/DTD/svg10.dtd">
<svg version="1.0" xmlns="http://www.w3.org/2000/svg"
 width="3500.000000pt" height="1122.000000pt" viewBox="0 0 3500.000000 1122.000000"
 preserveAspectRatio="xMidYMid meet">

<g transform="translate(0.000000,1122.000000) scale(0.100000,-0.100000)"
fill="#000000" stroke="none">
<path d="M0 5610 l0 -5610 17500 0 17500 0 0 5610 0 5610 -17500 0 -17500 0 0
-5610z m8505 3870 c1137 -95 2161 -679 2823 -1609 178 -251 359 -589 467 -874
377 -994 330 -2119 -129 -3073 -556 -1155 -1629 -1958 -2871 -2148 -1108 -171
-2213 141 -3063 862 -150 127 -397 381 -519 534 -208 260 -408 592 -537 893
-68 158 -169 449 -164 471 2 9 120 -36 368 -139 201 -84 530 -222 731 -306
l366 -153 22 -81 c12 -45 43 -127 70 -182 139 -288 388 -495 701 -583 87 -25
110 -27 275 -27 154 1 192 4 262 23 469 127 793 522 821 1004 l7 117 651 469
651 469 124 6 c357 19 683 169 941 435 203 208 326 439 390 729 31 142 31 444
0 586 -130 588 -561 1020 -1142 1144 -131 28 -451 25 -579 -5 -165 -40 -333
-107 -456 -184 -161 -102 -326 -259 -431 -414 -152 -222 -232 -448 -256 -724
l-11 -135 -454 -666 -455 -666 -116 -6 c-184 -9 -371 -66 -512 -157 l-47 -30
-1027 429 c-565 236 -1030 432 -1033 434 -2 3 5 79 17 168 93 730 369 1388
821 1955 129 162 376 415 537 549 609 511 1357 820 2137 884 145 12 481 12
620 1z m1167 -1916 c356 -74 638 -348 736 -714 21 -81 25 -117 25 -240 0 -125
-4 -159 -27 -245 -105 -397 -443 -687 -844 -724 -409 -37 -793 186 -967 562
-70 151 -98 318 -83 497 35 448 397 824 847 880 81 10 223 3 313 -16z m5643
-494 c205 -20 410 -74 570 -151 97 -46 195 -107 195 -121 0 -10 -226 -416
-240 -432 -5 -5 -21 0 -37 12 -15 11 -65 38 -111 61 -321 161 -703 177 -870
36 -80 -67 -109 -212 -63 -308 47 -98 143 -150 518 -283 435 -154 558 -217
698 -358 136 -136 185 -263 185 -477 0 -64 -6 -150 -14 -191 -73 -377 -373
-627 -841 -699 -118 -18 -378 -15 -520 6 -146 21 -320 65 -435 109 -76 30
-223 100 -259 124 -10 8 4 56 73 243 48 129 89 240 91 247 3 9 25 2 77 -24
105 -53 322 -122 455 -144 140 -24 346 -26 447 -5 195 41 299 142 300 290 1
167 -90 233 -534 383 -257 88 -368 133 -475 195 -266 154 -385 336 -402 615
-16 272 91 518 290 667 220 166 541 239 902 205z m13822 -25 c172 -52 284
-242 254 -433 -15 -99 -39 -151 -101 -216 -168 -177 -479 -151 -608 51 -47 74
-65 152 -59 252 8 148 79 261 200 321 105 51 201 59 314 25z m-10247 -270 l0
-255 -425 0 -425 0 0 -1165 0 -1165 -295 0 -295 0 0 1165 0 1165 -425 0 -425
0 0 255 0 255 1145 0 1145 0 0 -255z m2550 0 l0 -255 -655 0 -655 0 0 -320 0
-320 565 0 565 0 0 -255 0 -255 -565 0 -565 0 0 -330 0 -330 655 0 655 0 0
-260 0 -260 -950 0 -950 0 0 1420 0 1420 950 0 950 0 0 -255z m2165 223 c39
-95 1065 -2789 1065 -2798 0 -7 -97 -9 -316 -8 l-316 3 -59 170 c-33 94 -75
216 -95 273 l-36 102 -551 -2 -550 -3 -91 -270 -91 -270 -308 -3 -308 -2 7 22
c4 13 238 646 521 1408 282 762 516 1391 518 1398 3 9 73 12 300 12 l296 0 14
-32z m2699 -980 c257 -557 470 -1016 474 -1020 4 -4 112 230 241 520 129 290
333 749 454 1020 l220 492 283 0 284 0 0 -1420 0 -1420 -280 0 -280 0 -1 388
c-1 213 -5 599 -8 859 l-6 472 -369 -797 c-203 -438 -375 -807 -383 -819 -13
-22 -18 -23 -174 -23 l-160 0 -63 133 c-34 72 -204 440 -377 816 l-314 684 -3
-857 -2 -856 -283 2 -282 3 -3 1418 -2 1417 284 0 284 0 466 -1012z m-19112
-1052 c309 -59 551 -283 640 -593 30 -102 32 -322 4 -423 -81 -294 -309 -520
-601 -596 -105 -27 -295 -25 -399 4 -213 61 -412 217 -501 393 l-25 48 133
-55 c423 -177 423 -177 537 -182 121 -5 198 10 298 59 136 66 247 193 299 339
34 99 43 246 19 340 -37 149 -136 292 -257 370 -31 20 -174 85 -319 145 l-263
110 34 13 c97 40 274 52 401 28z"/>
<path d="M9292 7320 c-123 -33 -225 -92 -323 -189 -141 -141 -207 -286 -216
-482 -29 -567 556 -945 1057 -683 176 92 313 265 366 464 24 88 24 271 1 360
-68 259 -273 466 -525 531 -100 25 -260 25 -360 -1z"/>
<path d="M28900 6984 c-139 -51 -212 -158 -212 -314 0 -139 56 -236 170 -292
59 -29 76 -33 152 -33 73 0 93 4 142 28 65 32 121 90 151 156 32 68 31 216 -1
287 -29 64 -92 126 -157 155 -66 30 -183 36 -245 13z m214 -143 c48 -45 43
-128 -10 -170 l-24 -19 46 -86 46 -86 -39 0 c-38 0 -39 1 -76 75 -37 75 -37
75 -77 75 l-40 0 0 -75 0 -75 -30 0 -30 0 0 196 0 196 104 -4 c94 -3 107 -5
130 -27z"/>
<path d="M28940 6750 l0 -60 41 0 c63 0 99 24 99 67 0 37 -26 53 -86 53 l-54
0 0 -60z"/>
<path d="M23276 6298 c-9 -24 -94 -276 -190 -560 l-174 -518 384 0 c211 0 384
2 384 5 0 7 -380 1109 -384 1113 -2 2 -11 -16 -20 -40z"/>
</g>
</svg>
